<?xml version="1.0" encoding="utf-8" ?><svg xmlns="http://www.w3.org/2000/svg" xmlns:xlink="http://www.w3.org/1999/xlink" width="1297" height="391" viewBox="0 0 1297 391"><path fill="#004643" transform="scale(0.999749 1)" d="M299.049 33.6633C310.606 32.4255 320.937 37.4464 327.032 47.3476C331.079 54.0442 332.286 62.0789 330.384 69.6686C327.368 81.9149 316.66 91.1427 303.841 91.2287C299.952 91.2544 296.471 91.5565 293.072 93.6523C291.708 94.4869 290.501 95.5543 289.506 96.8062C287.956 98.7571 286.192 102.251 285.022 104.517C283.117 108.22 281.261 111.948 279.458 115.702C259.234 157.523 242.561 202.706 233.546 248.425C231.763 257.47 228.174 268.043 237.07 274.448C238.552 275.516 240.18 276.464 241.624 277.594C254.939 288.284 262.038 305.953 257.888 322.762C255.067 334.206 247.822 344.064 237.741 350.174C210.259 366.748 173.871 349.515 170.994 316.982C170.47 311.061 172.479 305.311 169.026 299.948C167.763 297.986 166.493 296.554 164.525 295.24C153.143 287.829 141.173 281.163 129.538 274.188L97.2525 254.9C91.6995 251.612 83.2308 245.546 76.9478 244.291C71.1363 243.13 65.7849 248.043 60.8919 250.29C52.8287 253.994 44.4081 254.651 35.7315 252.516C26.0117 250.072 17.6651 243.859 12.5355 235.25C7.00729 226.111 5.70242 215.902 8.28436 205.574C10.7222 195.655 17.035 187.127 25.8105 181.898C33.351 177.271 42.3616 175.666 51.0364 177.402C56.74 178.537 62.2648 181.261 67.7785 178.039C70.5675 176.41 74.9765 170.225 77.1569 167.557C84.1698 159.017 91.1167 150.423 97.9973 141.777L106.139 131.842C106.607 131.267 107.222 130.431 107.702 129.925C111.312 126.111 112.555 120.947 110.695 115.979C110.007 114.144 108.868 112.236 108.116 110.303C106.688 106.666 105.787 102.843 105.441 98.9518C104.588 88.2721 108.034 77.6941 115.014 69.5653C121.892 61.6298 131.644 56.7545 142.12 56.0139C152.558 55.2287 162.871 58.6973 170.713 65.6309C178.258 72.1759 183.087 81.9922 183.907 91.9791C184.736 102.096 181.439 112.75 174.689 120.457C165.65 130.78 153.714 135.189 140.122 133.708C136.767 133.342 132.305 131.687 129.101 131.928C124.158 132.3 119.753 134.927 116.632 138.705C107.107 150.228 97.5031 161.744 88.5228 173.7C85.7644 177.372 82.0849 181.162 79.7137 185.11C78.7813 187.072 77.8314 190.056 78.1841 192.238C80.1472 204.374 91.4847 200.573 98.9546 198.62C105.011 197.078 111.006 195.302 116.924 193.294C168.491 175.588 208.367 143.512 247.339 106.623C253.254 101.075 259.076 95.4285 264.804 89.6864C268.47 86.0397 273.484 82.2056 274.648 77C275.466 73.3432 274.005 69.7454 273.557 66.1199C272.691 58.6308 274.77 51.0982 279.357 45.1146C284.367 38.6894 290.926 34.6695 299.049 33.6633ZM115.88 251.721L150.035 272.179C156.75 276.207 163.797 280.853 171.027 283.915C173.68 285.039 177.297 284.825 180.057 284.178C186.466 282.341 191.116 277.652 197.527 274.736C202.725 272.372 208.149 271.818 212.446 269.274C214.643 267.978 216.478 266.151 217.783 263.959C218.466 262.816 218.988 261.583 219.334 260.296C219.989 257.868 220.595 252.868 221.077 250.147C222.131 244.508 223.275 238.887 224.507 233.285C226.027 226.316 228.192 217.72 230.187 210.848C237.8 184.644 247.121 158.965 258.091 133.979C262.728 123.292 267.614 112.715 272.746 102.256C273.116 101.518 276.064 95.9367 276.016 95.6678L275.941 95.6058C273.484 98.2376 270.656 100.853 268.053 103.367L251.773 118.805C231.493 137.856 208.443 157.87 185.11 173.077C172.781 181.069 159.905 188.184 146.578 194.371C136.036 199.268 125.204 203.513 114.143 207.083C109.939 208.436 105.935 209.473 101.669 210.639C97.2831 211.837 91.4947 212.443 87.6747 214.707C84.4954 216.592 82.1137 220.928 82.373 224.574C82.4712 227.528 84.2933 231.498 86.4712 233.333C90.0647 236.361 95.5815 239.447 99.6796 241.907L115.88 251.721Z"/><path fill="#004643" transform="scale(0.999749 1)" d="M353.573 298L353.573 83.3271L498.666 83.3271L498.666 121.853L394.222 121.853L394.222 117.165L398.91 117.165L398.91 177.443L394.222 177.443L394.222 172.756L489.657 172.756L489.657 210.476L394.222 210.476L394.222 205.788L398.91 205.788L398.91 268.85L394.222 268.85L394.222 264.162L498.666 264.162L498.666 302.688L353.573 302.688L353.573 298ZM362.948 298L358.26 298L358.26 293.312L493.978 293.312L493.978 298L489.291 298L489.291 268.85L493.978 268.85L493.978 273.537L389.535 273.537L389.535 201.101L484.969 201.101L484.969 205.788L480.282 205.788L480.282 177.443L484.969 177.443L484.969 182.131L389.535 182.131L389.535 112.478L493.978 112.478L493.978 117.165L489.291 117.165L489.291 88.0146L493.978 88.0146L493.978 92.7021L358.26 92.7021L358.26 88.0146L362.948 88.0146L362.948 298ZM358.26 298L358.26 88.0146L493.978 88.0146L493.978 117.165L394.222 117.165L394.222 177.443L484.969 177.443L484.969 205.788L394.222 205.788L394.222 268.85L493.978 268.85L493.978 298L358.26 298ZM527.534 298L527.534 135.476L568.344 135.476L571.019 163.522L566.353 163.967L562.199 161.794Q569.494 147.845 583.343 139.84Q597.102 131.887 616.011 131.887Q635.235 131.887 649.182 139.573Q663.345 147.379 670.956 162.521Q678.413 177.278 678.413 198.757L678.413 302.688L633.15 302.688L633.15 202.199Q633.15 187.042 625.693 179.398Q618.334 171.73 604.805 171.73Q596.01 171.73 588.618 175.652Q581.472 179.475 577.161 187.02Q572.871 194.639 572.871 206.008L572.871 302.688L527.534 302.688L527.534 298ZM536.909 298L532.222 298L532.222 293.312L568.184 293.312L568.184 298L563.496 298L563.496 206.008Q563.496 192.181 569.021 182.369Q574.671 172.482 584.225 167.37Q593.678 162.355 604.805 162.355Q622.331 162.355 632.403 172.852Q642.525 183.226 642.525 202.199L642.525 298L637.837 298L637.837 293.312L673.726 293.312L673.726 298L669.038 298L669.038 198.757Q669.038 179.513 662.58 166.731Q656.274 154.187 644.657 147.784Q632.822 141.262 616.011 141.262Q599.617 141.262 588.035 147.957Q576.541 154.6 570.507 166.139L563.186 180.136L559.416 140.608L564.082 140.163L564.082 144.851L532.222 144.851L532.222 140.163L536.909 140.163L536.909 298ZM532.222 298L532.222 140.163L564.082 140.163L566.353 163.967Q573.018 151.223 585.689 143.898Q598.36 136.574 616.011 136.574Q634.029 136.574 646.919 143.679Q659.81 150.783 666.768 164.626Q673.726 178.396 673.726 198.757L673.726 298L637.837 298L637.837 202.199Q637.837 185.134 629.048 176.125Q620.332 167.043 604.805 167.043Q594.844 167.043 586.421 171.511Q578.072 175.979 573.091 184.694Q568.184 193.41 568.184 206.008L568.184 298L532.222 298ZM765.773 306.276Q746.425 306.276 733.298 299.196Q720.038 291.919 713.449 279.635Q706.959 267.537 706.959 253.469Q706.959 237.377 715.095 225.417Q723.199 213.424 738.779 206.952Q753.914 200.588 775.368 200.588L812.721 200.588L812.721 205.275L808.034 205.275Q808.034 192.644 805.601 184.671Q803.525 177.672 798.336 174.365Q792.804 170.778 781.886 170.778Q771.66 170.778 765.15 175.118Q759.151 179.156 757.479 187.518L756.725 191.286L712.285 191.286L712.846 186.095Q714.672 169.184 724.046 157.006Q733.355 144.832 748.551 138.343Q763.562 131.887 782.033 131.887Q804.804 131.887 820.652 139.693Q836.904 147.58 845.167 162.502Q853.371 177.095 853.371 197.658L853.371 302.688L813.946 302.688L809.768 274.293L814.406 273.61L818.568 275.767Q815.134 282.395 810.028 287.979Q804.985 293.503 798.364 297.651Q791.757 301.76 783.471 303.991Q775.356 306.276 765.773 306.276ZM765.773 296.901Q774.061 296.901 781.034 294.939Q787.982 293.068 793.387 289.706Q798.924 286.237 803.109 281.653Q807.379 276.983 810.244 271.454L816.928 258.552L822.632 297.318L817.995 298L817.995 293.312L848.683 293.312L848.683 298L843.996 298L843.996 197.658Q843.996 179.55 836.965 167.043Q830.14 154.719 816.509 148.103Q802.62 141.262 782.033 141.262Q765.493 141.262 752.233 146.964Q739.304 152.486 731.475 162.724Q723.71 172.812 722.167 187.102L717.506 186.599L717.506 181.911L752.882 181.911L752.882 186.599L748.286 185.679Q750.715 173.533 759.95 167.318Q768.821 161.403 781.886 161.403Q795.577 161.403 803.375 166.459Q811.517 171.648 814.568 181.935Q817.409 191.246 817.409 205.275L817.409 209.963L775.368 209.963Q755.805 209.963 742.376 215.61Q729.392 221.003 722.847 230.69Q716.334 240.264 716.334 253.469Q716.334 265.182 721.71 275.203Q726.986 285.038 737.749 290.945Q748.792 296.901 765.773 296.901ZM773.537 268.557Q780.34 268.557 786.089 265.682Q791.944 262.691 796.314 257.486Q800.873 252.068 803.594 245.099Q806.341 237.997 806.948 229.9L811.622 230.251L806.935 230.251L806.935 228.493L811.622 228.493L811.622 233.181L779.249 233.181Q769.821 233.181 764.121 235.651Q758.883 237.863 756.593 241.624Q754.274 245.471 754.274 250.612Q754.274 256.484 756.524 260.464Q758.723 264.202 762.934 266.364Q767.379 268.557 773.537 268.557ZM773.537 277.932Q765.192 277.932 758.651 274.704Q752.022 271.3 748.362 265.077Q744.899 258.95 744.899 250.612Q744.899 242.863 748.585 236.749Q752.448 230.403 760.393 227.049Q767.877 223.806 779.249 223.806L816.31 223.806L816.31 230.427L816.297 230.602Q815.586 240.083 812.327 248.509Q809.042 256.92 803.494 263.514Q797.902 270.175 790.281 274.068Q782.553 277.932 773.537 277.932ZM765.773 301.589Q747.609 301.589 735.524 295.07Q723.512 288.479 717.58 277.419Q711.647 266.359 711.647 253.469Q711.647 238.82 718.971 228.054Q726.295 217.214 740.578 211.281Q754.86 205.275 775.368 205.275L812.721 205.275Q812.721 191.945 810.084 183.303Q807.521 174.66 800.856 170.412Q794.191 166.091 781.886 166.091Q770.241 166.091 762.55 171.218Q754.933 176.345 752.882 186.599L717.506 186.599Q719.191 170.998 727.76 159.865Q736.33 148.659 750.392 142.653Q764.528 136.574 782.033 136.574Q803.712 136.574 818.58 143.898Q833.522 151.149 841.066 164.772Q848.683 178.322 848.683 197.658L848.683 298L817.995 298L814.406 273.61Q811.256 279.689 806.569 284.816Q801.955 289.87 795.875 293.679Q789.87 297.414 782.252 299.465Q774.708 301.589 765.773 301.589ZM773.537 273.244Q781.447 273.244 788.185 269.875Q794.923 266.433 799.904 260.5Q804.957 254.494 807.96 246.804Q810.963 239.04 811.622 230.251L811.622 228.493L779.249 228.493Q768.849 228.493 762.257 231.35Q755.665 234.133 752.589 239.187Q749.586 244.167 749.586 250.612Q749.586 257.717 752.443 262.771Q755.372 267.751 760.792 270.534Q766.286 273.244 773.537 273.244ZM886.034 298L886.034 135.476L926.999 135.476L930.537 167.48L925.878 167.995L921.794 165.694Q928.105 154.491 937.617 146.962Q947.204 139.434 960.083 135.664Q972.727 131.887 988.134 131.887L992.821 131.887L992.821 179.201L968.065 179.201Q960.494 179.201 953.632 181.085Q947.112 182.875 942.017 187.014Q937.165 190.945 934.323 197.954Q931.371 205.172 931.371 216.481L931.371 302.688L886.034 302.688L886.034 298ZM895.409 298L890.721 298L890.721 293.312L926.683 293.312L926.683 298L921.996 298L921.996 216.481Q921.996 203.328 925.635 194.432Q929.385 185.182 936.105 179.738Q942.73 174.356 951.15 172.044Q959.23 169.826 968.065 169.826L988.134 169.826L988.134 174.514L983.446 174.514L983.446 136.574L988.134 136.574L988.134 141.262Q974.097 141.262 962.717 144.662Q951.572 147.924 943.436 154.312Q935.369 160.698 929.962 170.296L922.817 182.977L918.142 140.678L922.801 140.163L922.801 144.851L890.721 144.851L890.721 140.163L895.409 140.163L895.409 298ZM890.721 298L890.721 140.163L922.801 140.163L925.878 167.995Q931.737 157.595 940.526 150.637Q949.388 143.679 961.4 140.163Q973.412 136.574 988.134 136.574L988.134 174.514L968.065 174.514Q959.862 174.514 952.391 176.564Q944.921 178.615 939.061 183.376Q933.275 188.063 929.979 196.193Q926.683 204.25 926.683 216.481L926.683 298L890.721 298ZM1012.03 298L1012.03 135.476L1053 135.476L1056.54 167.48L1051.88 167.995L1047.79 165.694Q1054.1 154.491 1063.62 146.962Q1073.2 139.434 1086.08 135.664Q1098.73 131.887 1114.13 131.887L1118.82 131.887L1118.82 179.201L1094.06 179.201Q1086.49 179.201 1079.63 181.085Q1073.11 182.875 1068.02 187.014Q1063.17 190.945 1060.32 197.954Q1057.37 205.172 1057.37 216.481L1057.37 302.688L1012.03 302.688L1012.03 298ZM1021.41 298L1016.72 298L1016.72 293.312L1052.68 293.312L1052.68 298L1048 298L1048 216.481Q1048 203.328 1051.64 194.432Q1055.39 185.182 1062.1 179.738Q1068.73 174.356 1077.15 172.044Q1085.23 169.826 1094.06 169.826L1114.13 169.826L1114.13 174.514L1109.45 174.514L1109.45 136.574L1114.13 136.574L1114.13 141.262Q1100.1 141.262 1088.72 144.662Q1077.57 147.924 1069.43 154.312Q1061.37 160.698 1055.96 170.296L1048.82 182.977L1044.14 140.678L1048.8 140.163L1048.8 144.851L1016.72 144.851L1016.72 140.163L1021.41 140.163L1021.41 298ZM1016.72 298L1016.72 140.163L1048.8 140.163L1051.88 167.995Q1057.74 157.595 1066.53 150.637Q1075.39 143.679 1087.4 140.163Q1099.41 136.574 1114.13 136.574L1114.13 174.514L1094.06 174.514Q1085.86 174.514 1078.39 176.564Q1070.92 178.615 1065.06 183.376Q1059.28 188.063 1055.98 196.193Q1052.68 204.25 1052.68 216.481L1052.68 298L1016.72 298ZM1192.67 306.276Q1173.32 306.276 1160.2 299.196Q1146.94 291.919 1140.35 279.635Q1133.86 267.537 1133.86 253.469Q1133.86 237.377 1141.99 225.417Q1150.1 213.424 1165.68 206.952Q1180.81 200.588 1202.27 200.588L1239.62 200.588L1239.62 205.275L1234.93 205.275Q1234.93 192.644 1232.5 184.671Q1230.42 177.672 1225.24 174.365Q1219.7 170.778 1208.79 170.778Q1198.56 170.778 1192.05 175.118Q1186.05 179.156 1184.38 187.518L1183.62 191.286L1139.18 191.286L1139.74 186.095Q1141.57 169.184 1150.94 157.006Q1160.25 144.832 1175.45 138.343Q1190.46 131.887 1208.93 131.887Q1231.7 131.887 1247.55 139.693Q1263.8 147.58 1272.07 162.502Q1280.27 177.095 1280.27 197.658L1280.27 302.688L1240.85 302.688L1236.67 274.293L1241.31 273.61L1245.47 275.767Q1242.03 282.395 1236.93 287.979Q1231.88 293.503 1225.26 297.651Q1218.66 301.76 1210.37 303.991Q1202.26 306.276 1192.67 306.276ZM1192.67 296.901Q1200.96 296.901 1207.93 294.939Q1214.88 293.068 1220.29 289.706Q1225.82 286.237 1230.01 281.653Q1234.28 276.983 1237.14 271.454L1243.83 258.552L1249.53 297.318L1244.89 298L1244.89 293.312L1275.58 293.312L1275.58 298L1270.9 298L1270.9 197.658Q1270.9 179.55 1263.86 167.043Q1257.04 154.719 1243.41 148.103Q1229.52 141.262 1208.93 141.262Q1192.39 141.262 1179.13 146.964Q1166.2 152.486 1158.37 162.724Q1150.61 172.812 1149.07 187.102L1144.41 186.599L1144.41 181.911L1179.78 181.911L1179.78 186.599L1175.18 185.679Q1177.61 173.533 1186.85 167.318Q1195.72 161.403 1208.79 161.403Q1222.48 161.403 1230.28 166.459Q1238.42 171.648 1241.47 181.935Q1244.31 191.246 1244.31 205.275L1244.31 209.963L1202.27 209.963Q1182.7 209.963 1169.28 215.61Q1156.29 221.003 1149.75 230.69Q1143.23 240.264 1143.23 253.469Q1143.23 265.182 1148.61 275.203Q1153.89 285.038 1164.65 290.945Q1175.69 296.901 1192.67 296.901ZM1200.44 268.557Q1207.24 268.557 1212.99 265.682Q1218.84 262.691 1223.21 257.486Q1227.77 252.068 1230.49 245.099Q1233.24 237.997 1233.85 229.9L1238.52 230.251L1233.83 230.251L1233.83 228.493L1238.52 228.493L1238.52 233.181L1206.15 233.181Q1196.72 233.181 1191.02 235.651Q1185.78 237.863 1183.49 241.624Q1181.17 245.471 1181.17 250.612Q1181.17 256.484 1183.42 260.464Q1185.62 264.202 1189.83 266.364Q1194.28 268.557 1200.44 268.557ZM1200.44 277.932Q1192.09 277.932 1185.55 274.704Q1178.92 271.3 1175.26 265.077Q1171.8 258.95 1171.8 250.612Q1171.8 242.863 1175.48 236.749Q1179.35 230.403 1187.29 227.049Q1194.78 223.806 1206.15 223.806L1243.21 223.806L1243.21 230.427L1243.2 230.602Q1242.48 240.083 1239.23 248.509Q1235.94 256.92 1230.39 263.514Q1224.8 270.175 1217.18 274.068Q1209.45 277.932 1200.44 277.932ZM1192.67 301.589Q1174.51 301.589 1162.42 295.07Q1150.41 288.479 1144.48 277.419Q1138.55 266.359 1138.55 253.469Q1138.55 238.82 1145.87 228.054Q1153.19 217.214 1167.48 211.281Q1181.76 205.275 1202.27 205.275L1239.62 205.275Q1239.62 191.945 1236.98 183.303Q1234.42 174.66 1227.76 170.412Q1221.09 166.091 1208.79 166.091Q1197.14 166.091 1189.45 171.218Q1181.83 176.345 1179.78 186.599L1144.41 186.599Q1146.09 170.998 1154.66 159.865Q1163.23 148.659 1177.29 142.653Q1191.43 136.574 1208.93 136.574Q1230.61 136.574 1245.48 143.898Q1260.42 151.149 1267.96 164.772Q1275.58 178.322 1275.58 197.658L1275.58 298L1244.89 298L1241.31 273.61Q1238.16 279.689 1233.47 284.816Q1228.85 289.87 1222.78 293.679Q1216.77 297.414 1209.15 299.465Q1201.61 301.589 1192.67 301.589ZM1200.44 273.244Q1208.35 273.244 1215.08 269.875Q1221.82 266.433 1226.8 260.5Q1231.86 254.494 1234.86 246.804Q1237.86 239.04 1238.52 230.251L1238.52 228.493L1206.15 228.493Q1195.75 228.493 1189.16 231.35Q1182.56 234.133 1179.49 239.187Q1176.49 244.167 1176.49 250.612Q1176.49 257.717 1179.34 262.771Q1182.27 267.751 1187.69 270.534Q1193.18 273.244 1200.44 273.244Z"/></svg>