<?xml version="1.0" encoding="utf-8" ?><svg xmlns="http://www.w3.org/2000/svg" xmlns:xlink="http://www.w3.org/1999/xlink" width="1272" height="391" viewBox="0 0 1272 391"><path fill="#004643" transform="scale(0.999921 1)" d="M144.874 74.7893Q141.988 74.3374 139.063 74.494Q136.138 74.6506 133.288 75.4098Q130.437 76.1689 127.769 77.5013Q125.102 78.8337 122.72 80.6881Q120.339 82.5427 118.336 84.8481Q116.332 87.1534 114.783 89.8209Q113.233 92.4884 112.198 95.4158Q111.163 98.343 110.682 101.418Q110.2 104.492 110.291 107.596Q110.382 110.699 111.043 113.713Q111.703 116.726 112.906 119.533Q114.109 122.341 115.809 124.834Q117.51 127.328 119.643 129.412Q121.776 131.495 124.258 133.089Q126.74 134.683 129.477 135.726Q132.215 136.769 135.101 137.221Q137.987 137.673 140.912 137.516Q143.837 137.36 146.687 136.601Q149.538 135.842 152.206 134.509Q154.873 133.177 157.254 131.323Q159.636 129.468 161.639 127.162Q163.643 124.857 165.192 122.19Q166.742 119.522 167.777 116.595Q168.812 113.668 169.293 110.593Q169.775 107.519 169.683 104.415Q169.592 101.311 168.932 98.298Q168.272 95.2846 167.069 92.4773Q165.866 89.6699 164.166 87.1763Q162.465 84.6828 160.332 82.599Q158.199 80.5151 155.717 78.9212Q153.235 77.3271 150.498 76.2841Q147.76 75.2411 144.874 74.7893Z"/><path fill="#004643" transform="scale(0.999921 1)" d="M68.5412 178.814Q65.6548 178.362 62.73 178.519Q59.8051 178.676 56.9544 179.435Q54.1035 180.194 51.4362 181.526Q48.769 182.858 46.3875 184.713Q44.0062 186.568 42.0025 188.873Q39.9986 191.179 38.4495 193.846Q36.9002 196.513 35.8651 199.44Q34.8299 202.368 34.3485 205.442Q33.8672 208.517 33.9583 211.621Q34.0493 214.724 34.7092 217.738Q35.3691 220.751 36.5725 223.558Q37.7759 226.365 39.4765 228.859Q41.1772 231.352 43.3096 233.437Q45.4421 235.521 47.9246 237.115Q50.407 238.709 53.144 239.752Q55.8811 240.795 58.7674 241.246Q61.6538 241.698 64.5786 241.542Q67.5035 241.385 70.3543 240.626Q73.2051 239.867 75.8724 238.535Q78.5398 237.202 80.9211 235.347Q83.3024 233.493 85.3062 231.188Q87.31 228.882 88.8592 226.215Q90.4085 223.547 91.4437 220.62Q92.4789 217.693 92.9602 214.618Q93.4416 211.543 93.3505 208.44Q93.2594 205.336 92.5995 202.323Q91.9394 199.31 90.7362 196.502Q89.5327 193.695 87.8321 191.202Q86.1316 188.707 83.999 186.624Q81.8665 184.54 79.384 182.946Q76.9016 181.352 74.1646 180.309Q71.4275 179.266 68.5412 178.814Z"/><path fill="#004643" transform="scale(0.999921 1)" d="M172.992 278.752Q170.106 278.301 167.181 278.457Q164.256 278.614 161.405 279.373Q158.555 280.132 155.887 281.464Q153.22 282.796 150.838 284.652Q148.457 286.506 146.453 288.811Q144.45 291.117 142.9 293.784Q141.351 296.452 140.316 299.379Q139.281 302.306 138.799 305.381Q138.318 308.456 138.409 311.559Q138.5 314.663 139.16 317.676Q139.82 320.689 141.023 323.497Q142.226 326.304 143.927 328.797Q145.628 331.291 147.76 333.375Q149.893 335.459 152.375 337.053Q154.858 338.647 157.595 339.69Q160.332 340.733 163.218 341.185Q166.104 341.636 169.029 341.48Q171.954 341.323 174.805 340.564Q177.656 339.805 180.323 338.473Q182.991 337.14 185.372 335.285Q187.753 333.431 189.757 331.126Q191.76 328.82 193.31 326.153Q194.859 323.486 195.894 320.558Q196.93 317.631 197.411 314.556Q197.892 311.482 197.801 308.378Q197.71 305.275 197.05 302.261Q196.39 299.248 195.187 296.44Q193.984 293.633 192.283 291.14Q190.583 288.646 188.45 286.562Q186.317 284.478 183.835 282.884Q181.353 281.29 178.615 280.247Q175.878 279.204 172.992 278.752Z"/><path fill="#004643" transform="scale(0.999921 1)" d="M266.888 61.8005Q264 61.3591 261.076 61.5264Q258.152 61.6936 255.303 62.463Q252.455 63.2326 249.793 64.5747Q247.13 65.9168 244.756 67.78Q242.382 69.6431 240.386 71.9557Q238.391 74.2683 236.851 76.9414Q235.311 79.6146 234.287 82.5456Q233.263 85.4767 232.792 88.5529Q232.322 91.6292 232.424 94.7323Q232.526 97.8356 233.197 100.847Q233.868 103.858 235.081 106.661Q236.295 109.464 238.005 111.951Q239.714 114.438 241.854 116.514Q243.994 118.59 246.483 120.175Q248.971 121.76 251.712 122.793Q254.452 123.826 257.341 124.268Q260.228 124.709 263.153 124.542Q266.077 124.375 268.925 123.605Q271.773 122.836 274.436 121.493Q277.098 120.151 279.473 118.288Q281.847 116.425 283.843 114.112Q285.838 111.8 287.378 109.127Q288.918 106.454 289.942 103.522Q290.966 100.591 291.436 97.5152Q291.907 94.439 291.804 91.3357Q291.702 88.2326 291.031 85.2215Q290.36 82.2105 289.147 79.4075Q287.933 76.6045 286.224 74.1172Q284.514 71.6299 282.374 69.5538Q280.234 67.4778 277.746 65.8928Q275.257 64.3078 272.517 63.2749Q269.776 62.2418 266.888 61.8005Z"/><path fill="#004643" transform="scale(0.999921 1)" d="M253.359 95.3366L155.578 322.791Q155.541 322.88 155.507 322.97Q155.473 323.059 155.444 323.15Q155.415 323.242 155.39 323.334Q155.366 323.426 155.346 323.52Q155.326 323.614 155.311 323.709Q155.296 323.803 155.285 323.898Q155.274 323.993 155.268 324.089Q155.262 324.185 155.26 324.28Q155.259 324.376 155.262 324.472Q155.266 324.568 155.274 324.663Q155.282 324.758 155.295 324.853Q155.308 324.948 155.325 325.042Q155.342 325.137 155.364 325.229Q155.386 325.323 155.413 325.415Q155.439 325.507 155.47 325.598Q155.501 325.688 155.536 325.777Q155.572 325.866 155.611 325.953Q155.651 326.04 155.694 326.125Q155.739 326.21 155.787 326.293Q155.835 326.376 155.887 326.456Q155.939 326.537 155.995 326.614Q156.05 326.692 156.11 326.767Q156.17 326.842 156.233 326.913Q156.296 326.986 156.362 327.054Q156.429 327.122 156.499 327.188Q156.569 327.253 156.642 327.315Q156.715 327.376 156.792 327.435Q156.867 327.493 156.946 327.547Q157.025 327.602 157.106 327.652Q157.188 327.702 157.271 327.748Q157.355 327.795 157.441 327.837Q157.526 327.879 157.614 327.917Q157.702 327.954 157.792 327.988Q157.882 328.021 157.972 328.051Q158.063 328.079 158.156 328.104Q158.248 328.129 158.341 328.148Q158.436 328.168 158.53 328.184Q158.624 328.199 158.719 328.209Q158.814 328.221 158.909 328.226Q159.005 328.232 159.1 328.233Q159.196 328.235 159.291 328.231Q159.387 328.228 159.482 328.22Q159.578 328.212 159.673 328.199Q159.767 328.186 159.861 328.169Q159.955 328.152 160.048 328.13Q160.142 328.108 160.233 328.081Q160.325 328.054 160.415 328.024Q160.506 327.992 160.595 327.957Q160.684 327.922 160.771 327.882Q160.857 327.842 160.943 327.798Q161.028 327.754 161.111 327.706Q161.193 327.658 161.273 327.606Q161.353 327.554 161.431 327.497Q161.508 327.442 161.583 327.382Q161.658 327.322 161.729 327.258Q161.802 327.195 161.87 327.128Q161.939 327.062 162.004 326.991Q162.069 326.922 162.13 326.848Q162.192 326.775 162.25 326.699Q162.309 326.623 162.363 326.543Q162.417 326.464 162.467 326.383Q162.518 326.302 162.563 326.218Q162.61 326.134 162.652 326.048Q162.694 325.962 162.732 325.874L260.512 98.4192Q260.551 98.3312 260.584 98.2416Q260.617 98.1518 260.647 98.0605Q260.676 97.9692 260.7 97.8767Q260.724 97.784 260.744 97.6904Q260.764 97.5967 260.78 97.5022Q260.795 97.4077 260.806 97.3125Q260.817 97.2173 260.823 97.1217Q260.829 97.0261 260.83 96.9303Q260.831 96.8346 260.828 96.7389Q260.825 96.6432 260.817 96.5478Q260.809 96.4524 260.796 96.3574Q260.783 96.2625 260.766 96.1683Q260.749 96.0742 260.727 95.981Q260.705 95.8878 260.678 95.7957Q260.652 95.7037 260.621 95.6131Q260.59 95.5225 260.554 95.4335Q260.519 95.3446 260.479 95.2574Q260.44 95.1703 260.396 95.0852Q260.352 95.0003 260.304 94.9175Q260.256 94.8345 260.204 94.7542Q260.152 94.6739 260.096 94.5962Q260.04 94.5185 259.981 94.4438Q259.921 94.3689 259.858 94.2971Q259.795 94.2252 259.728 94.1566Q259.661 94.0879 259.592 94.0227Q259.521 93.9574 259.449 93.8957Q259.376 93.834 259.3 93.7759Q259.224 93.7178 259.145 93.6635Q259.066 93.6092 258.985 93.5589Q258.904 93.5086 258.82 93.4623Q258.736 93.4159 258.65 93.3739Q258.564 93.3317 258.477 93.294Q258.389 93.2561 258.299 93.2227Q258.209 93.1891 258.118 93.1601Q258.027 93.131 257.935 93.1066Q257.842 93.082 257.749 93.062Q257.656 93.0422 257.561 93.0268Q257.467 93.0114 257.372 93.0008Q257.277 92.9902 257.181 92.9841Q257.086 92.9781 256.99 92.9768Q256.894 92.9756 256.799 92.979Q256.703 92.9824 256.609 92.9906Q256.513 92.9986 256.418 93.0114Q256.324 93.0242 256.23 93.0416Q256.136 93.059 256.043 93.0811Q255.949 93.103 255.858 93.1297Q255.766 93.1562 255.676 93.1873Q255.585 93.2183 255.496 93.2537Q255.407 93.2892 255.32 93.3289Q255.233 93.3687 255.148 93.4128Q255.063 93.4567 254.981 93.5049Q254.898 93.553 254.817 93.6051Q254.738 93.6574 254.66 93.7133Q254.582 93.7693 254.507 93.829Q254.432 93.8888 254.361 93.9522Q254.289 94.0156 254.22 94.0823Q254.152 94.1491 254.087 94.2193Q254.022 94.2893 253.96 94.3625Q253.898 94.4358 253.84 94.5118Q253.783 94.588 253.728 94.667Q253.674 94.7459 253.623 94.8273Q253.573 94.9088 253.527 94.9926Q253.481 95.0765 253.439 95.1625Q253.396 95.2485 253.359 95.3366Z"/><path fill="#004643" transform="scale(0.999921 1)" d="M270.473 94.6523L49.8935 212.305Q49.8082 212.351 49.7251 212.401Q49.6421 212.45 49.5617 212.504Q49.4812 212.558 49.4034 212.615Q49.3257 212.673 49.2509 212.734Q49.1761 212.795 49.1043 212.86Q49.0326 212.925 48.9641 212.994Q48.8957 213.061 48.8306 213.133Q48.7656 213.205 48.7042 213.28Q48.6426 213.355 48.5849 213.432Q48.5272 213.51 48.4734 213.59Q48.4195 213.671 48.3697 213.753Q48.3199 213.836 48.2741 213.922Q48.2284 214.007 48.1868 214.095Q48.1454 214.182 48.1082 214.271Q48.0711 214.361 48.0384 214.452Q48.0055 214.543 47.9774 214.635Q47.9491 214.729 47.9254 214.822Q47.9018 214.916 47.8828 215.011Q47.8637 215.106 47.8493 215.202Q47.835 215.297 47.8252 215.394Q47.8156 215.49 47.8107 215.586Q47.8057 215.683 47.8056 215.78Q47.8053 215.877 47.8098 215.974Q47.8144 216.07 47.8238 216.166Q47.833 216.263 47.8469 216.359Q47.861 216.455 47.8796 216.55Q47.8982 216.645 47.9216 216.738Q47.9449 216.833 47.9727 216.925Q48.0006 217.018 48.033 217.109Q48.0653 217.2 48.1022 217.29Q48.1389 217.379 48.1802 217.466Q48.2213 217.554 48.2666 217.64Q48.312 217.725 48.3615 217.808Q48.411 217.892 48.4646 217.972Q48.5181 218.052 48.5755 218.131Q48.6329 218.208 48.694 218.283Q48.7552 218.358 48.82 218.43Q48.8847 218.502 48.9529 218.57Q49.0211 218.639 49.0927 218.703Q49.1641 218.769 49.2386 218.831Q49.3133 218.892 49.3908 218.95Q49.4683 219.007 49.5485 219.061Q49.6287 219.116 49.7116 219.165Q49.7943 219.215 49.8795 219.261Q49.9646 219.307 50.0519 219.348Q50.1392 219.39 50.2284 219.426Q50.3175 219.464 50.4085 219.496Q50.4994 219.53 50.5918 219.558Q50.6842 219.586 50.7779 219.61Q50.8717 219.633 50.9664 219.652Q51.0612 219.671 51.1567 219.686Q51.2523 219.7 51.3483 219.71Q51.4446 219.719 51.5411 219.724Q51.6376 219.729 51.7343 219.729Q51.8309 219.729 51.9275 219.724Q52.024 219.72 52.1202 219.71Q52.2164 219.701 52.312 219.687Q52.4076 219.673 52.5024 219.654Q52.5972 219.636 52.691 219.612Q52.7848 219.589 52.8773 219.561Q52.9699 219.533 53.0609 219.501Q53.1519 219.468 53.2414 219.431Q53.3307 219.394 53.4182 219.353Q53.5055 219.312 53.591 219.266L274.17 101.613Q274.255 101.568 274.338 101.518Q274.421 101.468 274.502 101.415Q274.582 101.361 274.66 101.304Q274.738 101.246 274.813 101.185Q274.888 101.123 274.959 101.058Q275.031 100.994 275.099 100.925Q275.168 100.857 275.233 100.785Q275.298 100.714 275.359 100.639Q275.42 100.564 275.478 100.486Q275.536 100.409 275.59 100.328Q275.644 100.248 275.693 100.165Q275.744 100.082 275.79 99.9967Q275.835 99.9114 275.877 99.824Q275.918 99.7364 275.955 99.6471Q275.992 99.5577 276.026 99.4667Q276.058 99.3756 276.086 99.2829Q276.114 99.1903 276.138 99.0965Q276.162 99.0027 276.181 98.9077Q276.2 98.8128 276.214 98.717Q276.229 98.6213 276.238 98.525Q276.248 98.4287 276.253 98.3319Q276.258 98.2353 276.258 98.1385Q276.258 98.0418 276.254 97.945Q276.249 97.8483 276.24 97.752Q276.231 97.6556 276.217 97.5599Q276.202 97.464 276.184 97.369Q276.165 97.2741 276.142 97.1802Q276.118 97.0862 276.09 96.9935Q276.063 96.9009 276.03 96.8096Q275.998 96.7185 275.961 96.629Q275.924 96.5395 275.883 96.452Q275.842 96.3644 275.797 96.279Q275.751 96.1935 275.702 96.1104Q275.653 96.0274 275.599 95.9468Q275.546 95.8662 275.488 95.7883Q275.431 95.7105 275.37 95.6356Q275.308 95.5607 275.244 95.4889Q275.179 95.417 275.111 95.3485Q275.042 95.2799 274.971 95.2149Q274.899 95.1496 274.825 95.0882Q274.75 95.0267 274.673 94.9689Q274.595 94.9111 274.515 94.8571Q274.435 94.8034 274.352 94.7535Q274.269 94.7035 274.184 94.6578Q274.099 94.6121 274.012 94.5705Q273.925 94.529 273.835 94.4919Q273.746 94.4547 273.655 94.4219Q273.564 94.3891 273.472 94.361Q273.379 94.3326 273.286 94.309Q273.192 94.2854 273.097 94.2663Q273.003 94.2474 272.907 94.233Q272.811 94.2186 272.715 94.209Q272.619 94.1993 272.522 94.1944Q272.426 94.1895 272.329 94.1894Q272.233 94.1892 272.136 94.1939Q272.04 94.1985 271.943 94.2078Q271.847 94.2172 271.752 94.2313Q271.656 94.2453 271.561 94.2641Q271.466 94.2828 271.373 94.3062Q271.279 94.3296 271.186 94.3575Q271.094 94.3855 271.003 94.418Q270.912 94.4504 270.822 94.4874Q270.733 94.5243 270.645 94.5655Q270.558 94.6068 270.473 94.6523Z"/><path fill="#004643" transform="scale(0.999921 1)" d="M171.279 301.466L47.3123 192.803Q47.2163 192.719 47.1126 192.645Q47.0088 192.571 46.8983 192.507Q46.7878 192.443 46.6716 192.391Q46.5553 192.338 46.4346 192.297Q46.3138 192.256 46.1896 192.227Q46.0653 192.198 45.9389 192.182Q45.8124 192.166 45.6848 192.162Q45.5574 192.158 45.4301 192.166Q45.3029 192.174 45.177 192.196Q45.0513 192.216 44.9281 192.25Q44.8049 192.283 44.6856 192.328Q44.5662 192.373 44.4518 192.43Q44.3374 192.487 44.2292 192.554Q44.1209 192.622 44.0198 192.7Q43.9187 192.778 43.8257 192.865Q43.7327 192.953 43.6488 193.048Q43.5646 193.145 43.4904 193.249Q43.4162 193.353 43.3526 193.463Q43.2888 193.574 43.2364 193.69Q43.1838 193.807 43.1429 193.928Q43.1019 194.049 43.0731 194.173Q43.0442 194.298 43.0277 194.424Q43.0111 194.551 43.007 194.679Q43.003 194.807 43.0114 194.934Q43.0199 195.061 43.0407 195.188Q43.0616 195.314 43.0947 195.437Q43.1278 195.56 43.1728 195.68Q43.2178 195.8 43.2744 195.914Q43.3309 196.028 43.3982 196.137Q43.4658 196.245 43.5435 196.346Q43.6212 196.448 43.7083 196.541Q43.7957 196.634 43.8916 196.718L167.859 305.381Q167.955 305.465 168.059 305.54Q168.162 305.614 168.273 305.677Q168.383 305.741 168.499 305.794Q168.616 305.847 168.736 305.887Q168.858 305.928 168.982 305.957Q169.106 305.986 169.232 306.003Q169.359 306.019 169.486 306.023Q169.614 306.027 169.741 306.018Q169.868 306.01 169.994 305.989Q170.12 305.968 170.243 305.935Q170.366 305.902 170.486 305.856Q170.605 305.811 170.719 305.754Q170.834 305.698 170.942 305.63Q171.05 305.562 171.151 305.485Q171.252 305.407 171.345 305.319Q171.439 305.232 171.523 305.136Q171.606 305.04 171.681 304.935Q171.755 304.832 171.819 304.721Q171.882 304.611 171.935 304.494Q171.987 304.377 172.028 304.257Q172.069 304.135 172.098 304.011Q172.126 303.887 172.143 303.76Q172.16 303.633 172.164 303.506Q172.168 303.378 172.16 303.25Q172.151 303.123 172.131 302.996Q172.109 302.87 172.076 302.747Q172.043 302.624 171.999 302.504Q171.953 302.385 171.897 302.271Q171.84 302.156 171.773 302.047Q171.705 301.939 171.628 301.838Q171.55 301.737 171.463 301.644Q171.376 301.55 171.279 301.466Z"/><path fill="#004643" transform="scale(0.999921 1)" d="M147.68 88.036L47.095 214.015Q47.017 214.113 46.9491 214.217Q46.8812 214.322 46.8237 214.433Q46.7664 214.543 46.7201 214.659Q46.6738 214.776 46.6392 214.895Q46.6045 215.015 46.5817 215.138Q46.5588 215.261 46.5482 215.385Q46.5375 215.51 46.5391 215.634Q46.5406 215.759 46.5544 215.883Q46.5682 216.007 46.594 216.129Q46.6198 216.251 46.6574 216.371Q46.6951 216.489 46.7441 216.604Q46.7933 216.719 46.8534 216.828Q46.9135 216.938 46.9839 217.041Q47.0546 217.143 47.1348 217.239Q47.215 217.334 47.3042 217.421Q47.3935 217.508 47.4908 217.586Q47.588 217.665 47.6924 217.733Q47.797 217.8 47.9076 217.858Q48.0182 217.915 48.1339 217.962Q48.2497 218.008 48.3693 218.043Q48.489 218.077 48.6116 218.1Q48.7341 218.123 48.8583 218.133Q48.9825 218.144 49.1071 218.142Q49.2317 218.14 49.3555 218.127Q49.4794 218.113 49.6013 218.087Q49.7232 218.061 49.842 218.023Q49.9608 217.986 50.0753 217.937Q50.1899 217.887 50.299 217.827Q50.4082 217.766 50.511 217.696Q50.6138 217.625 50.7091 217.545Q50.8044 217.464 50.8915 217.375Q50.9785 217.285 51.0563 217.188L151.642 91.2089Q151.719 91.1114 151.787 91.0067Q151.855 90.9021 151.912 90.7911Q151.97 90.6803 152.016 90.5644Q152.062 90.4485 152.097 90.3286Q152.132 90.2086 152.154 90.0858Q152.177 89.9631 152.188 89.8388Q152.199 89.7144 152.197 89.5895Q152.196 89.4648 152.182 89.3407Q152.168 89.2166 152.142 89.0944Q152.116 88.9723 152.079 88.8533Q152.041 88.7344 151.992 88.6197Q151.943 88.5049 151.883 88.3957Q151.823 88.2863 151.752 88.1834Q151.681 88.0805 151.601 87.9851Q151.521 87.8896 151.432 87.8025Q151.343 87.7154 151.245 87.6374Q151.148 87.5595 151.044 87.4915Q150.939 87.4235 150.829 87.3661Q150.718 87.3086 150.602 87.2624Q150.487 87.2161 150.367 87.1814Q150.247 87.1467 150.125 87.124Q150.002 87.1012 149.878 87.0905Q149.754 87.0799 149.629 87.0815Q149.505 87.0832 149.38 87.097Q149.257 87.1108 149.135 87.1368Q149.013 87.1627 148.894 87.2005Q148.775 87.2383 148.661 87.2876Q148.546 87.3368 148.437 87.3971Q148.328 87.4574 148.225 87.528Q148.122 87.5987 148.027 87.6792Q147.932 87.7597 147.845 87.8491Q147.757 87.9384 147.68 88.036Z"/><path fill="#004643" transform="scale(0.999921 1)" d="M328.798 298L328.798 83.3271L473.891 83.3271L473.891 121.853L369.447 121.853L369.447 117.165L374.135 117.165L374.135 177.443L369.447 177.443L369.447 172.756L464.882 172.756L464.882 210.476L369.447 210.476L369.447 205.788L374.135 205.788L374.135 268.85L369.447 268.85L369.447 264.162L473.891 264.162L473.891 302.688L328.798 302.688L328.798 298ZM338.173 298L333.485 298L333.485 293.312L469.203 293.312L469.203 298L464.516 298L464.516 268.85L469.203 268.85L469.203 273.537L364.76 273.537L364.76 201.101L460.194 201.101L460.194 205.788L455.507 205.788L455.507 177.443L460.194 177.443L460.194 182.131L364.76 182.131L364.76 112.478L469.203 112.478L469.203 117.165L464.516 117.165L464.516 88.0146L469.203 88.0146L469.203 92.7021L333.485 92.7021L333.485 88.0146L338.173 88.0146L338.173 298ZM333.485 298L333.485 88.0146L469.203 88.0146L469.203 117.165L369.447 117.165L369.447 177.443L460.194 177.443L460.194 205.788L369.447 205.788L369.447 268.85L469.203 268.85L469.203 298L333.485 298ZM502.759 298L502.759 135.476L543.569 135.476L546.244 163.522L541.578 163.967L537.424 161.794Q544.719 147.845 558.568 139.84Q572.327 131.887 591.236 131.887Q610.46 131.887 624.407 139.573Q638.57 147.379 646.181 162.521Q653.638 177.278 653.638 198.757L653.638 302.688L608.375 302.688L608.375 202.199Q608.375 187.042 600.918 179.398Q593.559 171.73 580.03 171.73Q571.235 171.73 563.843 175.652Q556.697 179.475 552.386 187.02Q548.096 194.639 548.096 206.008L548.096 302.688L502.759 302.688L502.759 298ZM512.134 298L507.447 298L507.447 293.312L543.409 293.312L543.409 298L538.721 298L538.721 206.008Q538.721 192.181 544.246 182.369Q549.896 172.482 559.45 167.37Q568.903 162.355 580.03 162.355Q597.556 162.355 607.628 172.852Q617.75 183.226 617.75 202.199L617.75 298L613.062 298L613.062 293.312L648.951 293.312L648.951 298L644.263 298L644.263 198.757Q644.263 179.513 637.805 166.731Q631.499 154.187 619.882 147.784Q608.047 141.262 591.236 141.262Q574.842 141.262 563.26 147.957Q551.766 154.6 545.732 166.139L538.411 180.136L534.641 140.608L539.307 140.163L539.307 144.851L507.447 144.851L507.447 140.163L512.134 140.163L512.134 298ZM507.447 298L507.447 140.163L539.307 140.163L541.578 163.967Q548.243 151.223 560.914 143.898Q573.585 136.574 591.236 136.574Q609.254 136.574 622.144 143.679Q635.035 150.783 641.993 164.626Q648.951 178.396 648.951 198.757L648.951 298L613.062 298L613.062 202.199Q613.062 185.134 604.273 176.125Q595.557 167.043 580.03 167.043Q570.069 167.043 561.646 171.511Q553.297 175.979 548.316 184.694Q543.409 193.41 543.409 206.008L543.409 298L507.447 298ZM740.998 306.276Q721.65 306.276 708.523 299.196Q695.263 291.919 688.674 279.635Q682.184 267.537 682.184 253.469Q682.184 237.377 690.32 225.417Q698.424 213.424 714.004 206.952Q729.139 200.588 750.593 200.588L787.946 200.588L787.946 205.275L783.259 205.275Q783.259 192.644 780.826 184.671Q778.75 177.672 773.561 174.365Q768.029 170.778 757.111 170.778Q746.885 170.778 740.375 175.118Q734.376 179.156 732.704 187.518L731.95 191.286L687.51 191.286L688.071 186.095Q689.897 169.184 699.271 157.006Q708.58 144.832 723.776 138.343Q738.787 131.887 757.258 131.887Q780.029 131.887 795.877 139.693Q812.129 147.58 820.392 162.502Q828.596 177.095 828.596 197.658L828.596 302.688L789.171 302.688L784.993 274.293L789.631 273.61L793.793 275.767Q790.359 282.395 785.253 287.979Q780.21 293.503 773.589 297.651Q766.982 301.76 758.696 303.991Q750.581 306.276 740.998 306.276ZM740.998 296.901Q749.286 296.901 756.259 294.939Q763.207 293.068 768.612 289.706Q774.149 286.237 778.334 281.653Q782.604 276.983 785.469 271.454L792.153 258.552L797.857 297.318L793.22 298L793.22 293.312L823.908 293.312L823.908 298L819.221 298L819.221 197.658Q819.221 179.55 812.19 167.043Q805.365 154.719 791.734 148.103Q777.845 141.262 757.258 141.262Q740.718 141.262 727.458 146.964Q714.529 152.486 706.7 162.724Q698.935 172.812 697.392 187.102L692.731 186.599L692.731 181.911L728.107 181.911L728.107 186.599L723.511 185.679Q725.94 173.533 735.175 167.318Q744.046 161.403 757.111 161.403Q770.802 161.403 778.6 166.459Q786.742 171.648 789.793 181.935Q792.634 191.246 792.634 205.275L792.634 209.963L750.593 209.963Q731.03 209.963 717.601 215.61Q704.617 221.003 698.072 230.69Q691.559 240.264 691.559 253.469Q691.559 265.182 696.935 275.203Q702.211 285.038 712.974 290.945Q724.017 296.901 740.998 296.901ZM748.762 268.557Q755.565 268.557 761.314 265.682Q767.169 262.691 771.539 257.486Q776.098 252.068 778.819 245.099Q781.566 237.997 782.173 229.9L786.847 230.251L782.16 230.251L782.16 228.493L786.847 228.493L786.847 233.181L754.474 233.181Q745.046 233.181 739.346 235.651Q734.108 237.863 731.818 241.624Q729.499 245.471 729.499 250.612Q729.499 256.484 731.749 260.464Q733.948 264.202 738.159 266.364Q742.604 268.557 748.762 268.557ZM748.762 277.932Q740.417 277.932 733.876 274.704Q727.247 271.3 723.587 265.077Q720.124 258.95 720.124 250.612Q720.124 242.863 723.81 236.749Q727.673 230.403 735.618 227.049Q743.102 223.806 754.474 223.806L791.535 223.806L791.535 230.427L791.522 230.602Q790.811 240.083 787.552 248.509Q784.267 256.92 778.719 263.514Q773.127 270.175 765.506 274.068Q757.778 277.932 748.762 277.932ZM740.998 301.589Q722.834 301.589 710.749 295.07Q698.737 288.479 692.805 277.419Q686.872 266.359 686.872 253.469Q686.872 238.82 694.196 228.054Q701.52 217.214 715.803 211.281Q730.085 205.275 750.593 205.275L787.946 205.275Q787.946 191.945 785.309 183.303Q782.746 174.66 776.081 170.412Q769.416 166.091 757.111 166.091Q745.466 166.091 737.775 171.218Q730.158 176.345 728.107 186.599L692.731 186.599Q694.416 170.998 702.985 159.865Q711.555 148.659 725.617 142.653Q739.753 136.574 757.258 136.574Q778.937 136.574 793.805 143.898Q808.747 151.149 816.291 164.772Q823.908 178.322 823.908 197.658L823.908 298L793.22 298L789.631 273.61Q786.481 279.689 781.794 284.816Q777.18 289.87 771.1 293.679Q765.095 297.414 757.477 299.465Q749.933 301.589 740.998 301.589ZM748.762 273.244Q756.672 273.244 763.41 269.875Q770.148 266.433 775.129 260.5Q780.182 254.494 783.185 246.804Q786.188 239.04 786.847 230.251L786.847 228.493L754.474 228.493Q744.074 228.493 737.482 231.35Q730.89 234.133 727.814 239.187Q724.811 244.167 724.811 250.612Q724.811 257.717 727.668 262.771Q730.597 267.751 736.017 270.534Q741.511 273.244 748.762 273.244ZM861.259 298L861.259 135.476L902.224 135.476L905.762 167.48L901.103 167.995L897.019 165.694Q903.33 154.491 912.842 146.962Q922.429 139.434 935.308 135.664Q947.952 131.887 963.359 131.887L968.046 131.887L968.046 179.201L943.29 179.201Q935.719 179.201 928.857 181.085Q922.337 182.875 917.242 187.014Q912.39 190.945 909.548 197.954Q906.596 205.172 906.596 216.481L906.596 302.688L861.259 302.688L861.259 298ZM870.634 298L865.946 298L865.946 293.312L901.908 293.312L901.908 298L897.221 298L897.221 216.481Q897.221 203.328 900.86 194.432Q904.61 185.182 911.33 179.738Q917.955 174.356 926.375 172.044Q934.455 169.826 943.29 169.826L963.359 169.826L963.359 174.514L958.671 174.514L958.671 136.574L963.359 136.574L963.359 141.262Q949.322 141.262 937.942 144.662Q926.797 147.924 918.661 154.312Q910.594 160.698 905.187 170.296L898.042 182.977L893.367 140.678L898.026 140.163L898.026 144.851L865.946 144.851L865.946 140.163L870.634 140.163L870.634 298ZM865.946 298L865.946 140.163L898.026 140.163L901.103 167.995Q906.962 157.595 915.751 150.637Q924.613 143.679 936.625 140.163Q948.637 136.574 963.359 136.574L963.359 174.514L943.29 174.514Q935.087 174.514 927.616 176.564Q920.146 178.615 914.286 183.376Q908.5 188.063 905.204 196.193Q901.908 204.25 901.908 216.481L901.908 298L865.946 298ZM987.259 298L987.259 135.476L1028.22 135.476L1031.76 167.48L1027.1 167.995L1023.02 165.694Q1029.33 154.491 1038.84 146.962Q1048.43 139.434 1061.31 135.664Q1073.95 131.887 1089.36 131.887L1094.05 131.887L1094.05 179.201L1069.29 179.201Q1061.72 179.201 1054.86 181.085Q1048.34 182.875 1043.24 187.014Q1038.39 190.945 1035.55 197.954Q1032.6 205.172 1032.6 216.481L1032.6 302.688L987.259 302.688L987.259 298ZM996.634 298L991.946 298L991.946 293.312L1027.91 293.312L1027.91 298L1023.22 298L1023.22 216.481Q1023.22 203.328 1026.86 194.432Q1030.61 185.182 1037.33 179.738Q1043.95 174.356 1052.38 172.044Q1060.46 169.826 1069.29 169.826L1089.36 169.826L1089.36 174.514L1084.67 174.514L1084.67 136.574L1089.36 136.574L1089.36 141.262Q1075.32 141.262 1063.94 144.662Q1052.8 147.924 1044.66 154.312Q1036.59 160.698 1031.19 170.296L1024.04 182.977L1019.37 140.678L1024.03 140.163L1024.03 144.851L991.946 144.851L991.946 140.163L996.634 140.163L996.634 298ZM991.946 298L991.946 140.163L1024.03 140.163L1027.1 167.995Q1032.96 157.595 1041.75 150.637Q1050.61 143.679 1062.62 140.163Q1074.64 136.574 1089.36 136.574L1089.36 174.514L1069.29 174.514Q1061.09 174.514 1053.62 176.564Q1046.15 178.615 1040.29 183.376Q1034.5 188.063 1031.2 196.193Q1027.91 204.25 1027.91 216.481L1027.91 298L991.946 298ZM1167.9 306.276Q1148.55 306.276 1135.42 299.196Q1122.16 291.919 1115.57 279.635Q1109.08 267.537 1109.08 253.469Q1109.08 237.377 1117.22 225.417Q1125.32 213.424 1140.9 206.952Q1156.04 200.588 1177.49 200.588L1214.84 200.588L1214.84 205.275L1210.16 205.275Q1210.16 192.644 1207.72 184.671Q1205.65 177.672 1200.46 174.365Q1194.93 170.778 1184.01 170.778Q1173.78 170.778 1167.28 175.118Q1161.28 179.156 1159.6 187.518L1158.85 191.286L1114.41 191.286L1114.97 186.095Q1116.8 169.184 1126.17 157.006Q1135.48 144.832 1150.68 138.343Q1165.69 131.887 1184.16 131.887Q1206.93 131.887 1222.78 139.693Q1239.03 147.58 1247.29 162.502Q1255.49 177.095 1255.49 197.658L1255.49 302.688L1216.07 302.688L1211.89 274.293L1216.53 273.61L1220.69 275.767Q1217.26 282.395 1212.15 287.979Q1207.11 293.503 1200.49 297.651Q1193.88 301.76 1185.59 303.991Q1177.48 306.276 1167.9 306.276ZM1167.9 296.901Q1176.19 296.901 1183.16 294.939Q1190.11 293.068 1195.51 289.706Q1201.05 286.237 1205.23 281.653Q1209.5 276.983 1212.37 271.454L1219.05 258.552L1224.76 297.318L1220.12 298L1220.12 293.312L1250.81 293.312L1250.81 298L1246.12 298L1246.12 197.658Q1246.12 179.55 1239.09 167.043Q1232.27 154.719 1218.63 148.103Q1204.74 141.262 1184.16 141.262Q1167.62 141.262 1154.36 146.964Q1141.43 152.486 1133.6 162.724Q1125.83 172.812 1124.29 187.102L1119.63 186.599L1119.63 181.911L1155.01 181.911L1155.01 186.599L1150.41 185.679Q1152.84 173.533 1162.07 167.318Q1170.95 161.403 1184.01 161.403Q1197.7 161.403 1205.5 166.459Q1213.64 171.648 1216.69 181.935Q1219.53 191.246 1219.53 205.275L1219.53 209.963L1177.49 209.963Q1157.93 209.963 1144.5 215.61Q1131.52 221.003 1124.97 230.69Q1118.46 240.264 1118.46 253.469Q1118.46 265.182 1123.83 275.203Q1129.11 285.038 1139.87 290.945Q1150.92 296.901 1167.9 296.901ZM1175.66 268.557Q1182.46 268.557 1188.21 265.682Q1194.07 262.691 1198.44 257.486Q1203 252.068 1205.72 245.099Q1208.47 237.997 1209.07 229.9L1213.75 230.251L1209.06 230.251L1209.06 228.493L1213.75 228.493L1213.75 233.181L1181.37 233.181Q1171.95 233.181 1166.24 235.651Q1161.01 237.863 1158.72 241.624Q1156.4 245.471 1156.4 250.612Q1156.4 256.484 1158.65 260.464Q1160.85 264.202 1165.06 266.364Q1169.5 268.557 1175.66 268.557ZM1175.66 277.932Q1167.32 277.932 1160.78 274.704Q1154.15 271.3 1150.49 265.077Q1147.02 258.95 1147.02 250.612Q1147.02 242.863 1150.71 236.749Q1154.57 230.403 1162.52 227.049Q1170 223.806 1181.37 223.806L1218.43 223.806L1218.43 230.427L1218.42 230.602Q1217.71 240.083 1214.45 248.509Q1211.17 256.92 1205.62 263.514Q1200.03 270.175 1192.41 274.068Q1184.68 277.932 1175.66 277.932ZM1167.9 301.589Q1149.73 301.589 1137.65 295.07Q1125.64 288.479 1119.7 277.419Q1113.77 266.359 1113.77 253.469Q1113.77 238.82 1121.09 228.054Q1128.42 217.214 1142.7 211.281Q1156.98 205.275 1177.49 205.275L1214.84 205.275Q1214.84 191.945 1212.21 183.303Q1209.65 174.66 1202.98 170.412Q1196.31 166.091 1184.01 166.091Q1172.36 166.091 1164.68 171.218Q1157.06 176.345 1155.01 186.599L1119.63 186.599Q1121.31 170.998 1129.89 159.865Q1138.45 148.659 1152.52 142.653Q1166.65 136.574 1184.16 136.574Q1205.84 136.574 1220.71 143.898Q1235.65 151.149 1243.19 164.772Q1250.81 178.322 1250.81 197.658L1250.81 298L1220.12 298L1216.53 273.61Q1213.38 279.689 1208.69 284.816Q1204.08 289.87 1198 293.679Q1191.99 297.414 1184.38 299.465Q1176.83 301.589 1167.9 301.589ZM1175.66 273.244Q1183.57 273.244 1190.31 269.875Q1197.05 266.433 1202.03 260.5Q1207.08 254.494 1210.08 246.804Q1213.09 239.04 1213.75 230.251L1213.75 228.493L1181.37 228.493Q1170.97 228.493 1164.38 231.35Q1157.79 234.133 1154.71 239.187Q1151.71 244.167 1151.71 250.612Q1151.71 257.717 1154.57 262.771Q1157.5 267.751 1162.92 270.534Q1168.41 273.244 1175.66 273.244Z"/></svg>