<?xml version="1.0" encoding="utf-8" ?><svg xmlns="http://www.w3.org/2000/svg" xmlns:xlink="http://www.w3.org/1999/xlink" width="338" height="337" viewBox="0 0 338 337"><path fill="#004643" transform="scale(0.436529 0.436529)" d="M685.061 15.2642C711.535 12.4287 735.201 23.9306 749.165 46.6123C758.436 61.9529 761.2 80.3588 756.843 97.7451C749.934 125.799 725.404 146.938 696.039 147.135C687.13 147.194 679.155 147.886 671.37 152.687C668.245 154.599 665.48 157.044 663.2 159.912C659.65 164.381 655.609 172.385 652.929 177.576C648.563 186.058 644.313 194.599 640.182 203.198C593.853 299.002 555.658 402.508 535.007 507.24C530.922 527.96 522.701 552.182 543.079 566.853C546.475 569.299 550.204 571.472 553.512 574.061C584.013 598.548 600.276 639.025 590.77 677.53C584.308 703.746 567.71 726.33 544.616 740.327C481.662 778.294 398.304 738.817 391.712 664.29C390.513 650.726 395.115 637.555 387.205 625.268C384.312 620.774 381.401 617.494 376.894 614.484C350.82 597.506 323.399 582.237 296.745 566.259L222.786 522.074C210.065 514.541 190.665 500.644 176.272 497.769C162.959 495.11 150.7 506.365 139.491 511.513C121.02 519.998 101.73 521.502 81.8536 516.612C59.5876 511.013 40.4672 496.781 28.7164 477.059C16.0523 456.123 13.0631 432.736 18.9778 409.076C24.5624 386.354 39.0238 366.818 59.1266 354.839C76.4004 344.241 97.0418 340.563 116.914 344.54C129.98 347.14 142.636 353.382 155.267 346.001C161.656 342.268 171.756 328.099 176.751 321.988C192.816 302.425 208.73 282.738 224.492 262.93L243.142 240.171C244.216 238.855 245.625 236.94 246.723 235.78C254.993 227.043 257.84 215.213 253.579 203.834C252.004 199.629 249.395 195.259 247.671 190.83C244.4 182.499 242.336 173.742 241.544 164.827C239.591 140.362 247.485 116.13 263.474 97.5086C279.23 79.3298 301.569 68.1615 325.568 66.465C349.48 64.6663 373.104 72.6121 391.068 88.4956C408.353 103.489 419.416 125.976 421.293 148.854C423.194 172.03 415.64 196.435 400.178 214.091C379.47 237.738 352.128 247.839 320.991 244.446C313.305 243.608 303.085 239.816 295.744 240.369C284.421 241.222 274.331 247.24 267.18 255.893C245.361 282.291 223.36 308.671 202.788 336.061C196.469 344.473 188.04 353.154 182.608 362.198C180.472 366.693 178.296 373.529 179.104 378.526C183.601 406.327 209.573 397.621 226.685 393.146C240.56 389.615 254.292 385.545 267.849 380.945C385.98 340.386 477.327 266.905 566.603 182.401C580.154 169.691 593.492 156.756 606.613 143.602C615.011 135.248 626.497 126.465 629.164 114.54C631.038 106.163 627.691 97.921 626.664 89.6157C624.679 72.4597 629.443 55.2041 639.951 41.4969C651.427 26.7781 666.454 17.5693 685.061 15.2642ZM265.458 514.791L343.701 561.655C359.083 570.883 375.227 581.525 391.788 588.541C397.866 591.116 406.151 590.626 412.474 589.142C427.155 584.935 437.809 574.193 452.494 567.514C464.403 562.099 476.828 560.829 486.671 555.002C491.703 552.033 495.908 547.846 498.897 542.826C500.462 540.206 501.657 537.382 502.449 534.435C503.95 528.872 505.339 517.417 506.443 511.184C508.857 498.268 511.477 485.39 514.301 472.557C517.782 456.592 522.742 436.901 527.313 421.159C544.752 361.13 566.105 302.306 591.235 245.068C601.856 220.585 613.049 196.355 624.805 172.396C625.653 170.706 632.407 157.92 632.296 157.304L632.126 157.162C626.497 163.191 620.019 169.183 614.056 174.941L576.762 210.306C530.303 253.948 477.501 299.796 424.05 334.634C395.806 352.941 366.31 369.241 335.78 383.414C311.632 394.632 286.818 404.356 261.478 412.533C251.847 415.634 242.676 418.01 232.903 420.68C222.856 423.424 209.596 424.813 200.845 430C193.562 434.318 188.106 444.25 188.7 452.603C188.925 459.37 193.099 468.463 198.088 472.667C206.32 479.605 218.958 486.674 228.346 492.309L265.458 514.791Z"/></svg>